<?xml version="1.0" standalone="no"?>
<!DOCTYPE svg PUBLIC "-//W3C//DTD SVG 20010904//EN"
 "http://www.w3.org/TR/2001/REC-SVG-20010904/DTD/svg10.dtd">
<svg version="1.0" xmlns="http://www.w3.org/2000/svg"
 width="512.000000pt" height="512.000000pt" viewBox="0 0 512.000000 512.000000"
 preserveAspectRatio="xMidYMid meet">

<g transform="translate(0.000000,512.000000) scale(0.100000,-0.100000)"
fill="#B5B5C3" stroke="none">
<path d="M2107 4379 c-96 -13 -237 -45 -280 -63 -31 -12 -37 -20 -37 -44 0
-53 20 -58 118 -35 48 12 88 21 89 20 1 -2 -24 -35 -56 -75 -96 -120 -195
-331 -246 -524 -10 -40 -23 -68 -31 -68 -52 0 -344 90 -448 138 l-59 27 84 86
c46 47 114 110 152 138 49 39 67 59 67 76 0 26 -24 55 -45 55 -24 0 -140 -93
-235 -189 -472 -478 -587 -1203 -285 -1806 329 -655 1080 -997 1790 -815 191
49 242 83 199 131 -21 23 -38 24 -95 4 -108 -39 -334 -84 -421 -85 -17 0 -18
40 -18 710 l0 710 705 0 705 0 0 -47 c0 -69 -25 -210 -56 -320 l-27 -95 21
-20 c30 -30 66 -18 85 29 21 54 54 194 68 292 17 123 6 421 -20 536 -93 400
-306 724 -631 956 -166 119 -423 228 -625 264 -107 19 -373 28 -468 14z m143
-476 l0 -376 -122 6 c-147 8 -321 27 -338 37 -27 17 79 309 164 454 52 89 146
190 211 227 92 53 85 80 85 -348z m170 352 c140 -71 280 -294 366 -583 22 -74
25 -95 15 -101 -17 -11 -185 -30 -333 -38 l-118 -6 0 376 c0 253 3 377 10 377
6 0 33 -11 60 -25z m325 -37 c124 -39 292 -124 400 -200 49 -34 135 -107 189
-162 l100 -99 -30 -15 c-90 -48 -346 -132 -448 -147 -39 -6 -46 -5 -46 9 0 36
-93 292 -139 384 -50 97 -87 155 -149 231 l-34 41 34 -7 c18 -3 74 -19 123
-35z m-1564 -582 c103 -48 256 -99 373 -126 l98 -23 -6 -36 c-32 -185 -56
-403 -56 -518 l0 -63 -381 0 -382 0 6 78 c17 217 95 450 220 655 23 37 44 67
48 67 3 0 39 -15 80 -34z m2357 -33 c122 -191 204 -434 219 -650 l6 -83 -382
0 -381 0 0 73 c0 102 -17 282 -40 421 -11 66 -19 120 -18 121 2 1 46 12 98 25
117 28 294 88 380 129 36 17 67 31 70 31 3 0 24 -30 48 -67z m-1633 -153 c55
-6 154 -14 220 -18 l120 -7 3 -277 2 -278 -223 0 c-239 0 -247 -2 -247 -50 0
-48 9 -50 247 -50 l223 0 0 -279 0 -278 -137 -7 c-76 -4 -187 -13 -247 -21
-61 -8 -111 -13 -113 -12 -1 2 -11 57 -22 123 -57 348 -53 748 9 1108 12 66
13 68 39 63 14 -3 71 -11 126 -17z m949 -67 c25 -144 36 -239 43 -380 l6 -133
-276 0 -277 0 0 279 0 278 138 7 c75 5 178 14 227 20 50 7 97 14 106 15 14 1
20 -17 33 -86z m-1264 -675 c0 -116 24 -334 56 -519 l6 -36 -98 -23 c-117 -27
-270 -78 -373 -126 -41 -19 -77 -34 -80 -34 -11 0 -97 148 -140 240 -21 47
-51 121 -65 165 -30 89 -66 283 -66 351 l0 44 380 0 380 0 0 -62z m660 -973
c0 -426 7 -399 -85 -346 -66 38 -161 140 -211 227 -88 152 -191 438 -164 454
7 4 63 13 124 19 61 6 125 13 141 15 17 1 67 4 113 5 l82 1 0 -375z m-555 248
c50 -192 150 -405 246 -525 32 -40 57 -74 55 -75 -1 -1 -44 9 -94 23 -246 67
-466 197 -656 389 l-90 89 65 29 c118 54 371 132 440 136 12 1 21 -18 34 -66z"/>
<path d="M1628 4239 c-42 -22 -51 -55 -22 -83 21 -21 42 -20 82 4 39 24 43 61
10 84 -27 19 -25 20 -70 -5z"/>
<path d="M2891 2655 c-155 -44 -307 -167 -375 -306 -115 -235 -73 -503 108
-683 120 -120 253 -176 419 -176 132 0 252 37 344 106 17 13 36 24 40 24 5 0
30 -22 56 -48 44 -45 47 -51 37 -76 -15 -40 -12 -102 6 -139 22 -44 560 -584
606 -608 73 -37 159 -20 215 44 53 60 63 138 27 207 -7 14 -142 154 -301 311
-272 271 -291 288 -336 297 -43 9 -100 4 -124 -11 -5 -3 -33 17 -61 46 l-51
52 31 45 c222 324 84 758 -287 900 -78 30 -271 38 -354 15z m278 -100 c259
-68 421 -338 356 -590 -59 -227 -247 -375 -479 -375 -139 0 -252 47 -350 144
-157 158 -187 404 -72 600 33 57 132 149 194 180 108 55 242 70 351 41z m843
-1323 c262 -261 278 -280 278 -314 0 -47 -26 -77 -73 -85 l-39 -6 -284 284
c-256 257 -284 288 -284 317 0 46 38 82 87 82 36 0 50 -12 315 -278z"/>
<path d="M2959 2451 c-20 -16 -22 -23 -14 -47 10 -28 13 -29 95 -35 97 -7 125
-16 191 -64 25 -19 53 -35 61 -35 26 0 51 37 44 64 -8 31 -110 101 -179 121
-73 22 -169 20 -198 -4z"/>
<path d="M2782 2366 c-36 -34 -37 -36 -22 -63 21 -37 50 -40 89 -8 37 32 40
67 9 89 -30 22 -33 21 -76 -18z"/>
</g>
</svg>
