<?xml version="1.0" standalone="no"?>
<!DOCTYPE svg PUBLIC "-//W3C//DTD SVG 20010904//EN"
 "http://www.w3.org/TR/2001/REC-SVG-20010904/DTD/svg10.dtd">
<svg version="1.0" xmlns="http://www.w3.org/2000/svg"
 width="512.000000pt" height="512.000000pt" viewBox="0 0 512.000000 512.000000"
 preserveAspectRatio="xMidYMid meet">

<g transform="translate(0.000000,512.000000) scale(0.100000,-0.100000)"
fill="#003264" stroke="none">
<path d="M1249 5095 c-121 -38 -204 -130 -245 -272 -3 -10 -71 -13 -298 -13
-182 0 -315 -4 -348 -11 -172 -37 -311 -176 -347 -347 -16 -76 -16 -4009 0
-4084 37 -172 175 -310 347 -347 38 -8 504 -11 1680 -11 1761 0 1736 0 1935
54 751 206 1234 932 1132 1699 -85 639 -554 1156 -1185 1306 -45 11 -113 23
-151 27 l-69 7 0 648 c0 445 -4 665 -11 701 -33 153 -140 276 -287 331 -53 20
-82 22 -381 27 l-324 5 -12 42 c-30 100 -96 176 -195 222 l-55 26 -570 2
c-472 2 -578 -1 -616 -12z m1135 -301 c23 -23 23 -245 0 -268 -14 -14 -76 -16
-534 -16 -458 0 -520 2 -534 16 -23 23 -23 245 0 268 14 14 76 16 534 16 458
0 520 -2 534 -16z m-1380 -296 c31 -107 77 -177 148 -223 l46 -30 3 -185 4
-186 33 -66 c38 -77 92 -130 171 -167 l56 -26 385 0 385 0 56 26 c79 37 133
90 171 167 l33 66 4 186 3 185 46 30 c71 46 117 116 148 223 3 9 70 12 294 12
272 0 293 -1 330 -20 26 -13 47 -34 60 -60 19 -38 20 -58 20 -684 l0 -645 -47
-6 c-27 -3 -99 -19 -161 -34 -108 -27 -113 -27 -123 -10 -5 11 -27 28 -49 39
-38 19 -59 20 -620 20 -562 0 -582 -1 -620 -20 -45 -23 -80 -80 -80 -130 0
-50 35 -107 80 -130 37 -19 58 -20 455 -20 l416 0 -63 -52 c-189 -157 -329
-341 -435 -573 l-32 -70 -158 -5 c-181 -6 -210 -15 -243 -80 -25 -50 -25 -90
0 -140 32 -63 76 -80 211 -80 l111 0 -6 -27 c-3 -16 -9 -89 -12 -163 -7 -148
10 -320 45 -443 l18 -67 -134 0 c-159 0 -199 -14 -233 -80 -25 -50 -25 -90 0
-140 36 -71 68 -80 297 -81 l198 0 64 -99 c89 -137 233 -294 346 -377 l30 -22
-1118 -1 c-1101 0 -1118 0 -1157 20 -26 13 -47 34 -60 60 -20 39 -20 54 -20
2022 1 1890 2 1985 19 2017 10 18 35 44 57 57 39 24 42 24 332 24 226 0 293
-3 296 -12z m1196 -422 c0 -109 -3 -138 -16 -150 -13 -14 -58 -16 -334 -16
-276 0 -321 2 -334 16 -13 12 -16 41 -16 150 l0 134 350 0 350 0 0 -134z
m1550 -1281 c144 -22 233 -50 365 -114 265 -130 457 -325 586 -595 188 -395
150 -857 -101 -1232 -68 -101 -223 -256 -324 -324 -379 -254 -840 -289 -1241
-96 -269 130 -467 329 -596 600 -188 395 -150 856 101 1232 67 100 222 254
324 323 266 179 582 253 886 206z"/>
<path d="M1295 3302 c-16 -11 -102 -92 -189 -180 l-160 -161 -72 69 c-80 76
-118 91 -184 71 -79 -24 -124 -105 -101 -183 10 -31 40 -69 119 -151 59 -60
127 -123 151 -138 50 -33 105 -38 149 -15 15 8 134 122 264 253 203 205 237
243 243 276 10 51 -17 120 -57 149 -44 31 -123 35 -163 10z"/>
<path d="M1295 2302 c-16 -11 -102 -92 -189 -180 l-160 -161 -72 69 c-80 76
-118 91 -184 71 -79 -24 -124 -105 -101 -183 10 -31 40 -69 119 -151 59 -60
127 -123 151 -138 50 -33 105 -38 149 -15 15 8 134 122 264 253 203 205 237
243 243 276 10 51 -17 120 -57 149 -44 31 -123 35 -163 10z"/>
<path d="M1295 1302 c-16 -11 -102 -92 -189 -180 l-160 -161 -72 69 c-80 76
-118 91 -184 71 -79 -24 -124 -105 -101 -183 10 -31 40 -69 119 -151 59 -60
127 -123 151 -138 50 -33 105 -38 149 -15 15 8 134 122 264 253 203 205 237
243 243 276 10 51 -17 120 -57 149 -44 31 -123 35 -163 10z"/>
<path d="M3498 2589 c-59 -31 -78 -78 -78 -197 l0 -99 -52 -11 c-28 -7 -87
-30 -131 -52 l-80 -40 -72 69 c-49 48 -83 72 -111 80 -111 30 -213 -72 -183
-183 8 -28 32 -62 80 -111 l69 -72 -40 -80 c-22 -44 -45 -103 -52 -131 l-11
-52 -99 0 c-120 0 -167 -19 -198 -80 -25 -50 -25 -90 0 -140 31 -61 78 -80
198 -80 l99 0 11 -52 c7 -28 30 -87 52 -131 l40 -80 -69 -72 c-48 -49 -72 -83
-80 -111 -21 -80 26 -162 105 -183 65 -17 108 1 190 80 l71 69 80 -40 c44 -22
103 -45 131 -52 l52 -11 0 -99 c0 -79 4 -107 20 -138 23 -45 80 -80 130 -80
50 0 107 35 130 80 16 31 20 59 20 138 l0 99 53 12 c30 6 89 29 132 51 l79 40
71 -69 c49 -48 83 -72 111 -80 80 -21 162 26 183 105 17 65 -1 108 -80 190
l-69 71 40 80 c22 44 45 103 52 131 l11 52 99 0 c79 0 107 4 138 20 45 23 80
80 80 130 0 50 -35 107 -80 130 -31 16 -59 20 -138 20 l-99 0 -11 52 c-7 28
-30 87 -52 131 l-40 80 69 72 c48 49 72 83 80 111 21 80 -26 162 -105 183 -65
17 -108 -1 -189 -80 l-71 -69 -79 40 c-43 22 -102 45 -132 51 l-53 12 0 99 c0
120 -19 167 -80 198 -49 25 -94 25 -142 -1z m164 -590 c87 -18 158 -58 223
-123 258 -259 118 -696 -244 -758 -141 -24 -281 22 -386 127 -178 177 -178
454 -1 630 111 111 258 155 408 124z"/>
<path d="M3498 1689 c-43 -22 -78 -81 -78 -129 0 -50 35 -107 80 -130 21 -11
53 -20 70 -20 76 0 150 74 150 150 0 50 -35 107 -80 130 -49 25 -94 25 -142
-1z"/>
</g>
</svg>
