<?xml version="1.0" standalone="no"?>
<!DOCTYPE svg PUBLIC "-//W3C//DTD SVG 20010904//EN"
 "http://www.w3.org/TR/2001/REC-SVG-20010904/DTD/svg10.dtd">
<svg version="1.0" xmlns="http://www.w3.org/2000/svg"
 width="512.000000pt" height="512.000000pt" viewBox="0 0 512.000000 512.000000"
 preserveAspectRatio="xMidYMid meet">

<g transform="translate(0.000000,512.000000) scale(0.100000,-0.100000)"
fill="#24356e" stroke="none">
<path d="M1305 5114 c-121 -7 -313 -26 -408 -40 -446 -65 -773 -217 -864 -402
l-28 -57 -3 -1222 -2 -1221 21 -59 c17 -45 38 -74 95 -130 60 -60 92 -81 186
-127 172 -84 343 -134 599 -176 67 -11 123 -21 125 -22 1 -2 -32 -21 -74 -43
-104 -54 -202 -151 -231 -229 -20 -54 -21 -73 -21 -451 0 -336 2 -401 16 -442
55 -165 265 -299 607 -388 280 -73 510 -98 887 -98 287 0 443 11 670 49 356
59 668 196 772 337 60 82 63 94 68 327 l5 215 125 7 c634 35 1122 211 1237
446 l28 57 0 1120 0 1120 -28 58 c-102 208 -484 360 -1060 423 -252 28 -700
22 -950 -12 l-45 -6 -4 228 c-4 252 -10 278 -78 364 -136 171 -505 304 -987
355 -144 15 -537 26 -658 19z m435 -234 c474 -29 861 -134 1008 -274 67 -64
54 -110 -48 -176 -156 -100 -451 -184 -780 -222 -169 -19 -678 -16 -845 5
-442 56 -802 190 -839 312 -15 51 75 128 227 192 309 130 793 192 1277 163z
m-1418 -710 c167 -82 426 -149 718 -187 171 -22 736 -25 900 -5 380 47 596
106 843 230 4 2 7 -22 5 -54 l-3 -58 -55 -13 c-202 -50 -395 -136 -498 -223
-85 -71 -127 -146 -137 -248 -5 -53 -11 -73 -23 -76 -10 -3 -82 -13 -162 -23
-176 -21 -606 -24 -780 -5 -445 48 -820 176 -885 303 -12 22 -15 70 -15 214 0
102 2 185 4 185 3 0 42 -18 88 -40z m3653 -231 c140 -12 350 -49 485 -85 253
-69 446 -186 424 -258 -24 -79 -196 -174 -428 -235 -244 -65 -430 -89 -746
-98 -435 -11 -832 42 -1111 148 -159 61 -269 140 -269 192 0 77 179 183 425
251 332 92 771 123 1220 85z m-3652 -469 c178 -84 441 -151 732 -187 196 -24
695 -24 883 0 74 9 138 17 143 17 5 0 9 -123 9 -288 l0 -289 -82 -11 c-267
-37 -722 -41 -963 -8 -331 44 -600 127 -742 229 -70 50 -73 62 -73 336 0 133
2 241 4 241 2 0 42 -18 89 -40z m2268 -301 c143 -47 340 -90 537 -116 173 -23
769 -26 922 -5 358 50 549 98 739 188 51 24 96 44 98 44 2 0 3 -91 1 -201 l-3
-201 -46 -42 c-262 -236 -1161 -346 -1849 -225 -237 41 -419 101 -552 179
-108 65 -108 64 -108 294 l0 196 69 -34 c38 -20 124 -54 192 -77z m-2296 -500
c189 -99 510 -177 865 -209 248 -23 771 -8 908 27 l22 5 0 -290 0 -290 -22 -5
c-13 -3 -88 -14 -168 -23 -174 -21 -584 -24 -760 -6 -349 37 -651 120 -810
223 -100 65 -100 63 -100 352 0 137 3 247 8 245 4 -2 30 -15 57 -29z m2091
-114 c138 -81 445 -163 759 -202 177 -22 723 -25 885 -5 343 43 609 110 789
201 33 17 63 31 66 31 3 0 5 -84 5 -187 0 -221 -3 -230 -100 -292 -159 -103
-460 -186 -810 -223 -149 -16 -602 -16 -750 0 -401 43 -748 151 -866 269 l-34
34 0 199 c0 110 3 200 7 200 3 0 25 -11 49 -25z m-16 -690 l25 -14 -32 -1
c-23 0 -33 5 -33 15 0 18 8 18 40 0z m2520 -170 c0 -207 -4 -223 -64 -269
-165 -125 -565 -228 -977 -251 l-127 -7 -4 99 c-3 76 -9 108 -27 141 -32 63
-84 116 -166 171 l-72 48 241 6 c303 8 492 29 726 83 163 38 355 104 415 144
55 36 55 36 55 -165z m-2250 -89 c307 -37 566 -107 724 -196 63 -36 126 -101
126 -130 0 -29 -63 -94 -126 -130 -161 -91 -443 -165 -764 -201 -148 -17 -630
-17 -775 -1 -419 48 -758 156 -864 277 -39 45 -39 65 0 110 124 140 511 250
1024 289 106 8 536 -4 655 -18z m-1642 -685 c187 -94 452 -161 802 -203 142
-17 680 -17 825 0 335 41 608 108 767 188 26 13 59 24 73 24 l25 0 0 -185 0
-185 -35 -39 c-36 -39 -142 -99 -245 -139 -143 -55 -400 -110 -625 -133 -153
-16 -596 -16 -743 0 -206 22 -441 68 -590 117 -96 31 -250 114 -286 155 l-36
39 0 195 c0 107 2 195 5 195 3 0 31 -13 63 -29z"/>
</g>
</svg>
