<?xml version="1.0" standalone="no"?>
<!DOCTYPE svg PUBLIC "-//W3C//DTD SVG 20010904//EN"
 "http://www.w3.org/TR/2001/REC-SVG-20010904/DTD/svg10.dtd">
<svg version="1.0" xmlns="http://www.w3.org/2000/svg"
 width="512.000000pt" height="512.000000pt" viewBox="0 0 512.000000 512.000000"
 preserveAspectRatio="xMidYMid meet">

<g transform="translate(0.000000,512.000000) scale(0.100000,-0.100000)"
fill="#003264" stroke="none">
<path d="M665 5110 c-11 -5 -163 -152 -338 -327 -301 -302 -319 -322 -324
-362 l-6 -43 334 -334 c299 -299 338 -334 366 -334 93 0 113 41 113 229 l0
140 326 3 326 3 24 28 c33 38 33 96 0 134 l-24 28 -402 0 -402 0 -24 -28 c-21
-25 -24 -38 -24 -115 l0 -87 -185 185 -185 185 177 177 c98 98 181 178 185
178 5 0 8 -34 8 -76 0 -70 2 -78 29 -105 l29 -29 392 0 392 0 29 29 c31 31 39
83 19 122 -25 46 -50 49 -379 49 l-310 0 -3 151 -3 151 -33 29 c-33 29 -68 36
-107 19z"/>
<path d="M3490 5113 c-30 -2 -118 -10 -195 -19 -488 -53 -826 -190 -911 -369
l-24 -50 0 -623 c0 -589 -1 -623 -17 -618 -137 42 -347 84 -543 108 -164 20
-721 17 -885 -6 -486 -66 -783 -185 -883 -354 l-27 -47 -3 -1334 c-3 -1481 -7
-1387 64 -1469 229 -268 1099 -404 1874 -292 445 65 746 206 804 377 14 40 16
128 16 660 0 337 3 613 8 613 4 0 36 -9 72 -20 195 -62 478 -99 805 -107 721
-17 1300 133 1443 375 l27 47 3 1334 c2 1190 1 1340 -13 1382 -70 208 -482
364 -1080 409 -129 9 -403 11 -535 3z m690 -218 c332 -40 616 -130 713 -226
33 -34 34 -49 2 -87 -75 -90 -362 -183 -696 -228 -162 -21 -584 -30 -760 -15
-403 34 -716 120 -844 233 -46 39 -45 67 2 109 128 112 447 195 903 233 103 9
553 -4 680 -19z m-1451 -622 c83 -31 268 -77 391 -97 220 -35 307 -41 635 -40
277 0 354 4 480 21 259 36 461 88 611 158 l74 34 0 -299 0 -298 -30 -31 c-104
-104 -386 -189 -775 -233 -168 -19 -618 -16 -795 6 -352 42 -624 125 -724 220
l-36 33 0 302 0 301 52 -26 c29 -15 82 -38 117 -51z m119 -894 c121 -34 330
-72 502 -91 174 -19 641 -16 820 6 302 36 541 95 690 171 27 14 52 25 55 25 3
0 5 -133 5 -295 l0 -294 -30 -34 c-92 -105 -420 -202 -805 -237 -151 -14 -558
-14 -690 0 -264 27 -471 69 -607 121 l-26 11 -4 186 c-3 182 -4 188 -30 233
-28 48 -94 114 -143 143 -30 17 -30 18 -27 90 l3 73 90 -39 c50 -21 138 -52
197 -69z m-1008 -44 c334 -45 621 -139 695 -227 33 -39 32 -54 -11 -94 -120
-114 -452 -203 -874 -235 -168 -13 -523 -7 -675 11 -349 41 -638 128 -739 224
-43 40 -44 55 -11 94 90 107 455 209 875 246 117 10 621 -3 740 -19z m-1565
-579 c151 -70 389 -129 658 -163 196 -24 703 -24 896 0 266 34 477 85 643 157
l88 38 0 -298 0 -298 -40 -36 c-245 -221 -1165 -312 -1819 -180 -219 45 -381
108 -461 180 l-40 36 0 300 c0 165 3 298 8 296 4 -2 34 -17 67 -32z m4645
-415 l0 -299 -26 -31 c-33 -40 -162 -104 -283 -141 -218 -67 -447 -99 -766
-107 -399 -10 -741 29 -1003 114 l-82 27 0 322 0 323 48 -15 c246 -76 559
-115 932 -115 253 0 403 10 600 42 205 32 467 109 545 158 17 11 31 20 33 20
1 1 2 -134 2 -298z m-4637 -446 c247 -114 642 -178 1097 -178 455 0 850 64
1097 178 42 19 77 35 79 35 2 0 4 -132 4 -293 0 -328 3 -313 -76 -368 -135
-92 -440 -170 -792 -200 -183 -15 -623 -7 -782 16 -328 46 -577 126 -671 215
l-39 37 0 296 c0 164 2 297 4 297 2 0 37 -16 79 -35z m141 -910 c120 -39 300
-77 486 -102 171 -23 732 -26 905 -5 277 34 511 91 663 162 l82 39 0 -301 0
-301 -36 -33 c-99 -94 -376 -179 -714 -220 -203 -25 -657 -25 -860 -1 -143 18
-282 44 -390 74 -160 43 -324 124 -349 172 -7 13 -11 124 -11 315 l0 296 62
-31 c33 -17 107 -46 162 -64z"/>
<path d="M1833 4750 c-34 -14 -65 -69 -58 -105 7 -43 57 -85 101 -85 50 0 94
45 94 95 0 47 -13 71 -50 90 -32 17 -54 18 -87 5z"/>
<path d="M4363 1398 c-42 -20 -53 -65 -53 -217 l0 -141 -370 0 -370 0 -31 -28
c-26 -24 -32 -36 -32 -72 0 -36 6 -48 32 -72 l32 -29 445 3 446 3 24 28 c21
25 24 38 24 115 l0 87 185 -185 185 -185 -177 -177 c-98 -98 -181 -178 -185
-178 -5 0 -8 34 -8 76 0 70 -2 78 -29 105 l-29 29 -422 0 c-457 0 -463 -1
-488 -55 -20 -44 -14 -75 22 -111 l34 -34 355 0 356 0 3 -151 3 -151 34 -30
c29 -26 39 -30 74 -25 37 5 65 30 364 330 307 306 325 326 330 366 l6 43 -334
334 c-314 314 -336 334 -369 333 -19 0 -45 -5 -57 -11z"/>
<path d="M3179 531 c-73 -74 0 -196 98 -164 15 5 38 25 51 44 30 43 24 84 -18
122 -42 38 -92 37 -131 -2z"/>
</g>
</svg>
