<?xml version="1.0" standalone="no"?>
<!DOCTYPE svg PUBLIC "-//W3C//DTD SVG 20010904//EN"
 "http://www.w3.org/TR/2001/REC-SVG-20010904/DTD/svg10.dtd">
<svg version="1.0" xmlns="http://www.w3.org/2000/svg"
 width="512.000000pt" height="512.000000pt" viewBox="0 0 512.000000 512.000000"
 preserveAspectRatio="xMidYMid meet">

<g transform="translate(0.000000,512.000000) scale(0.100000,-0.100000)"
fill="#000000" stroke="none">
<path d="M665 5108 c-11 -6 -25 -19 -32 -27 -18 -23 -18 -5019 0 -5042 25 -33
55 -39 192 -39 141 0 185 10 199 45 3 9 6 466 6 1016 l0 999 1711 2 1711 3 24
28 24 28 0 1350 0 1350 -25 24 -24 25 -1711 0 -1710 0 0 94 c0 111 -3 122 -41
141 -35 19 -293 21 -324 3z m205 -2548 l0 -2390 -45 0 -45 0 0 2390 0 2390 45
0 45 0 0 -2390z m1810 1735 l0 -415 415 0 415 0 0 415 0 415 413 -2 412 -3 0
-410 0 -410 -412 -3 -413 -2 0 -410 0 -410 413 -2 412 -3 3 -412 2 -413 -415
0 -415 0 0 415 0 415 -412 -2 -413 -3 -3 -412 -2 -413 -410 0 -410 0 0 415 0
415 -415 0 -415 0 0 410 0 410 415 0 415 0 0 415 0 415 410 0 410 0 0 -415z"/>
<path d="M1860 3470 l0 -410 410 0 410 0 0 410 0 410 -410 0 -410 0 0 -410z"/>
</g>
</svg>
