<?xml version="1.0" standalone="no"?>
<!DOCTYPE svg PUBLIC "-//W3C//DTD SVG 20010904//EN"
 "http://www.w3.org/TR/2001/REC-SVG-20010904/DTD/svg10.dtd">
<svg version="1.0" xmlns="http://www.w3.org/2000/svg"
 width="512.000000pt" height="512.000000pt" viewBox="0 0 512.000000 512.000000"
 preserveAspectRatio="xMidYMid meet">

<g transform="translate(0.000000,512.000000) scale(0.100000,-0.100000)"
fill="#24356e" stroke="none">
<path d="M1045 5114 c-128 -27 -207 -68 -287 -147 -32 -33 -73 -87 -89 -120
-61 -121 -59 -30 -59 -1937 l-1 -1745 -72 -34 c-129 -62 -246 -199 -296 -348
-111 -331 102 -696 449 -769 143 -30 238 -3 291 83 19 30 24 52 24 103 0 117
-62 181 -195 200 -85 12 -130 38 -170 97 -20 30 -25 49 -25 103 0 77 24 122
89 168 33 23 50 27 106 27 56 0 73 -4 106 -27 58 -41 82 -83 94 -167 12 -87
37 -132 93 -169 34 -23 52 -27 107 -27 55 0 73 4 107 27 22 15 51 44 64 65 21
33 24 49 23 128 -2 155 -58 281 -178 401 -51 50 -92 80 -143 105 l-73 34 3
1747 2 1748 28 27 c55 55 33 64 982 -379 479 -223 887 -414 908 -424 41 -20
47 -38 17 -54 -10 -5 -346 -147 -746 -315 -493 -207 -737 -314 -757 -333 -105
-98 -81 -258 47 -324 80 -41 84 -40 896 301 410 172 767 326 793 343 81 52
153 158 176 258 34 146 -17 301 -132 406 -48 44 -152 95 -988 483 -514 239
-963 443 -999 452 -61 17 -149 22 -195 13z"/>
<path d="M1842 789 c-48 -14 -109 -80 -123 -131 -23 -89 12 -182 88 -229 57
-36 154 -34 210 3 62 41 88 90 88 168 0 77 -26 127 -85 166 -43 29 -125 39
-178 23z"/>
<path d="M2542 789 c-48 -14 -109 -80 -123 -131 -23 -89 12 -182 88 -229 57
-36 154 -34 210 3 62 41 88 90 88 168 0 77 -26 127 -85 166 -43 29 -125 39
-178 23z"/>
<path d="M3242 789 c-48 -14 -109 -80 -123 -131 -23 -89 12 -182 88 -229 57
-36 154 -34 210 3 62 41 88 90 88 168 0 77 -26 127 -85 166 -43 29 -125 39
-178 23z"/>
<path d="M3942 789 c-48 -14 -109 -80 -123 -131 -23 -89 12 -182 88 -229 57
-36 154 -34 210 3 62 41 88 90 88 168 0 77 -26 127 -85 166 -43 29 -125 39
-178 23z"/>
<path d="M4642 789 c-48 -14 -109 -80 -123 -131 -23 -89 12 -182 88 -229 57
-36 154 -34 210 3 62 41 88 90 88 168 0 77 -26 127 -85 166 -43 29 -125 39
-178 23z"/>
</g>
</svg>
