<?xml version="1.0" standalone="no"?>
<!DOCTYPE svg PUBLIC "-//W3C//DTD SVG 20010904//EN"
 "http://www.w3.org/TR/2001/REC-SVG-20010904/DTD/svg10.dtd">
<svg version="1.0" xmlns="http://www.w3.org/2000/svg"
 width="512.000000pt" height="512.000000pt" viewBox="0 0 512.000000 512.000000"
 preserveAspectRatio="xMidYMid meet">

<g transform="translate(0.000000,512.000000) scale(0.100000,-0.100000)"
fill="#B5B5C3" stroke="none">
<path d="M2820 4765 c-8 -2 -49 -9 -90 -15 -194 -32 -379 -131 -527 -283 -211
-216 -307 -483 -282 -785 31 -375 291 -713 647 -842 237 -86 507 -78 737 22
161 70 320 201 423 351 64 93 102 173 139 292 25 84 27 102 27 270 0 167 -2
186 -28 269 -109 357 -399 628 -749 700 -73 15 -265 29 -297 21z m232 -199
c204 -40 372 -142 492 -299 59 -78 126 -212 145 -292 50 -207 21 -420 -82
-605 -48 -85 -172 -217 -257 -272 -308 -200 -720 -164 -987 85 -113 106 -183
220 -229 374 -35 117 -37 296 -5 418 107 405 519 670 923 591z"/>
<path d="M2827 4362 c-15 -15 -27 -37 -27 -48 0 -14 -12 -26 -37 -38 -68 -32
-111 -75 -144 -141 -41 -84 -45 -184 -10 -257 43 -90 152 -161 265 -174 210
-25 240 -251 37 -279 -87 -12 -143 41 -158 150 -8 61 -42 95 -95 95 -29 0 -46
-7 -65 -26 -24 -24 -25 -30 -21 -99 8 -124 80 -235 183 -284 25 -12 45 -27 45
-35 0 -7 12 -25 26 -40 36 -35 95 -36 129 -1 14 13 25 31 25 39 0 10 26 28 65
45 148 67 223 220 181 366 -22 74 -55 122 -113 167 -69 52 -105 67 -190 84
-127 24 -165 62 -143 142 17 67 98 114 156 92 50 -19 74 -49 74 -93 0 -93 121
-132 170 -54 17 28 15 126 -4 171 -22 52 -79 110 -140 139 -31 15 -56 34 -56
41 0 7 -12 25 -26 40 -37 37 -91 36 -127 -2z"/>
<path d="M4492 3000 c-110 -23 -139 -45 -443 -345 l-290 -285 -51 51 c-62 62
-136 98 -226 110 -37 4 -260 9 -497 9 -456 0 -495 3 -702 50 -231 53 -417 49
-596 -11 -212 -71 -428 -236 -570 -433 -14 -19 -15 -19 -63 5 -41 20 -64 24
-144 24 -138 0 -161 -14 -343 -199 -82 -83 -207 -213 -278 -288 -180 -191
-187 -155 89 -430 212 -212 219 -218 259 -218 56 0 93 37 93 94 0 40 -5 46
-170 210 -94 93 -169 173 -168 177 2 4 101 109 221 233 182 187 225 227 258
236 83 23 83 22 504 -388 214 -207 397 -389 408 -403 24 -33 26 -104 4 -144
-9 -17 -111 -127 -225 -245 l-209 -215 -67 63 c-57 53 -72 62 -103 62 -53 0
-93 -40 -93 -93 0 -37 7 -46 92 -129 133 -128 163 -144 215 -115 13 7 138 131
278 275 300 309 309 322 310 457 0 50 -2 99 -5 110 -10 39 108 46 945 54 424
5 781 11 795 15 14 4 45 12 70 18 63 15 166 69 226 116 53 42 853 975 891
1040 106 179 30 422 -159 507 -69 31 -176 42 -256 25z m177 -194 c47 -25 89
-81 96 -130 9 -56 -6 -102 -48 -152 -340 -404 -774 -908 -805 -936 -44 -40
-112 -78 -177 -98 -30 -10 -227 -15 -795 -20 -687 -7 -770 -9 -924 -29 l-169
-21 -86 82 c-306 292 -511 493 -511 501 0 15 94 128 151 182 119 112 259 195
389 231 100 28 317 26 435 -4 212 -54 220 -55 760 -61 562 -7 542 -4 598 -70
73 -87 54 -212 -42 -272 l-45 -29 -345 0 c-203 0 -361 -4 -382 -10 -88 -25
-93 -154 -6 -175 12 -3 191 -5 397 -3 l375 3 67 33 c112 55 193 165 205 276
l5 51 314 313 c219 218 327 319 357 332 51 24 146 26 186 6z"/>
<path d="M2345 1935 c-19 -18 -25 -35 -25 -65 0 -30 6 -47 25 -65 18 -19 35
-25 65 -25 30 0 47 6 65 25 19 18 25 35 25 65 0 30 -6 47 -25 65 -18 19 -35
25 -65 25 -30 0 -47 -6 -65 -25z"/>
<path d="M822 1781 c-106 -37 -180 -149 -169 -257 21 -213 275 -309 426 -162
55 54 75 104 75 183 0 83 -21 132 -83 188 -40 36 -120 67 -170 67 -14 -1 -50
-9 -79 -19z m128 -191 c41 -41 13 -110 -45 -110 -58 0 -86 69 -45 110 11 11
31 20 45 20 14 0 34 -9 45 -20z"/>
<path d="M874 960 c-59 -24 -72 -104 -25 -151 45 -45 111 -35 144 21 28 47 16
95 -33 123 -31 19 -54 20 -86 7z"/>
</g>
</svg>
