<?xml version="1.0"?>
<svg xmlns="http://www.w3.org/2000/svg" id="Layer_1" data-name="Layer 1" viewBox="0 0 512 512" width="512" height="512"><title>Box 3</title><polygon points="372.345 100.314 335.365 78.964 149.378 186.343 186.359 207.694 372.345 100.314"/><polygon points="135.378 178.26 321.364 70.881 256 33.143 70.014 140.522 135.378 178.26"/><polygon points="263 474.816 449 367.429 449 152.638 263 260.026 263 474.816"/><path d="M164.845,318.125,179,334.2V219.611l-37-21.143V322.285l14.729-6.005A7.291,7.291,0,0,1,164.845,318.125Z"/><path d="M193,352.75a7,7,0,0,1-12.254,4.625l-23.105-26.246L138.05,339.22a7.379,7.379,0,0,1-6.753-.652,7.183,7.183,0,0,1-3.3-5.818V190.385L63,152.638V367.429L249,474.816V260.026l-56-32.332Z"/><polygon points="386.345 108.398 200.359 215.777 256 247.901 441.986 140.522 386.345 108.398"/></svg>
