<?xml version="1.0" standalone="no"?>
<!DOCTYPE svg PUBLIC "-//W3C//DTD SVG 20010904//EN"
 "http://www.w3.org/TR/2001/REC-SVG-20010904/DTD/svg10.dtd">
<svg version="1.0" xmlns="http://www.w3.org/2000/svg"
 width="512.000000pt" height="512.000000pt" viewBox="0 0 512.000000 512.000000"
 preserveAspectRatio="xMidYMid meet">

<g transform="translate(0.000000,512.000000) scale(0.100000,-0.100000)"
fill="#003264" stroke="none">
<path d="M1050 5103 c-45 -23 -315 -379 -324 -426 -12 -63 24 -131 86 -163 15
-8 54 -14 87 -14 l61 0 2 -1234 c3 -1229 3 -1235 24 -1262 11 -15 33 -37 48
-48 27 -21 33 -21 1424 -26 l1397 -5 5 -917 c5 -907 5 -917 26 -945 63 -85
180 -80 248 11 21 27 21 33 21 1034 0 989 0 1008 -20 1041 -11 19 -33 43 -48
55 l-28 21 -1400 3 -1399 2 0 1135 0 1135 65 0 c71 0 106 13 144 53 25 27 38
96 27 141 -9 35 -266 377 -301 400 -41 27 -103 31 -145 9z"/>
<path d="M112 4150 c-41 -9 -80 -44 -98 -87 -12 -27 -14 -354 -14 -1988 0
-1940 0 -1956 20 -1995 13 -26 34 -47 60 -60 39 -20 56 -20 1517 -20 1420 0
1480 1 1513 19 19 10 44 30 55 45 19 27 20 42 23 559 2 517 2 533 -18 565 -11
18 -34 41 -52 52 -32 20 -53 20 -1042 20 -979 0 -1010 -1 -1040 -19 -93 -58
-91 -200 4 -256 34 -20 50 -20 943 -23 l907 -2 0 -330 0 -330 -1295 0 -1295 0
-2 1879 -3 1880 -21 27 c-42 57 -97 78 -162 64z"/>
<path d="M2042 4150 c-18 -4 -45 -18 -59 -31 -54 -51 -53 -37 -53 -596 0 -588
-3 -566 80 -610 l44 -23 1002 2 c1001 3 1003 3 1031 24 42 32 66 80 65 132 0
51 -21 85 -72 120 l-33 22 -908 0 -909 0 0 335 0 335 1295 0 1295 0 0 -1870
c0 -1855 0 -1871 20 -1910 23 -45 80 -80 130 -80 50 0 107 35 130 80 20 39 20
50 18 2009 l-3 1970 -21 27 c-11 15 -33 37 -48 48 -27 21 -30 21 -1499 23
-810 0 -1487 -2 -1505 -7z"/>
</g>
</svg>
