
<svg width="64" height="62" viewBox="0 0 64 62" fill="none" xmlns="http://www.w3.org/2000/svg">
  <g>
    <path d="M32 62c-1.3 0-2.6-0.4-3.7-1.1C10.1 48.3 1.4 38.5 0.2 22.1 0.1 20.5 1 19 2.6 18.3l28-11.3a4.5 4.5 0 0 1 3.2 0l28 11.3c1.6 0.6 2.5 2.2 2.4 3.8C62.6 38.5 53.9 48.3 35.7 60.9c-1.1 0.7-2.4 1.1-3.7 1.1z" fill="#F8C22B"/>
    <path d="M32 44.2c-1.4 0-2.6-1.1-2.6-2.6V23.6c0-1.4 1.2-2.6 2.6-2.6s2.6 1.2 2.6 2.6v18c0 1.5-1.2 2.6-2.6 2.6zm0 7.4a3 3 0 1 1 0-6 3 3 0 0 1 0 6z" fill="#fff"/>
  </g>
</svg>
